HIERARCHY
ROOT Hips
{
    OFFSET 0.000000 0.000000 0.000000
    CHANNELS 6 Xposition Yposition Zposition Zrotation Xrotation Yrotation
    JOINT Spine
    {
        OFFSET -0.000000 14.517291 0.000000
        CHANNELS 3 Zrotation Xrotation Yrotation
        JOINT Spine1
        {
            OFFSET -0.000000 37.558300 0.000000
            CHANNELS 3 Zrotation Xrotation Yrotation
            JOINT Neck
            {
                OFFSET -0.000000 37.404057 3.400369
                CHANNELS 3 Zrotation Xrotation Yrotation
                JOINT Head
                {
                    OFFSET -0.000000 24.785618 -3.540803
                    CHANNELS 3 Zrotation Xrotation Yrotation
                    End Site
                    {
                        OFFSET -0.000000 35.408028 0.000000
                    }
                }
            }
            JOINT LeftShoulder
            {
                OFFSET 6.992933 33.973492 -0.192664
                CHANNELS 3 Zrotation Xrotation Yrotation
                JOINT LeftArm
                {
                    OFFSET 21.527611 0.000000 0.000000
                    CHANNELS 3 Zrotation Xrotation Yrotation
                    JOINT LeftForeArm
                    {
                        OFFSET 56.353916 0.000000 0.000000
                        CHANNELS 3 Zrotation Xrotation Yrotation
                        JOINT LeftHand
                        {
                            OFFSET 47.774071 0.000000 0.000000
                            CHANNELS 3 Zrotation Xrotation Yrotation
                            End Site
                            {
                                OFFSET 26.556021 0.000000 0.000000
                            }
                        }
                    }
                }
            }
            JOINT RightShoulder
            {
                OFFSET -7.065357 33.973492 -0.192664
                CHANNELS 3 Zrotation Xrotation Yrotation
                JOINT RightArm
                {
                    OFFSET -21.527611 0.000000 0.000000
                    CHANNELS 3 Zrotation Xrotation Yrotation
                    JOINT RightForeArm
                    {
                        OFFSET -56.353916 0.000000 0.000000
                        CHANNELS 3 Zrotation Xrotation Yrotation
                        JOINT RightHand
                        {
                            OFFSET -47.774071 0.000000 0.000000
                            CHANNELS 3 Zrotation Xrotation Yrotation
                            End Site
                            {
                                OFFSET -26.556021 0.000000 0.000000
                            }
                        }
                    }
                }
            }
        }
    }
    JOINT LeftUpLeg
    {
        OFFSET 17.704014 0.000000 0.000000
        CHANNELS 3 Zrotation Xrotation Yrotation
        JOINT LeftLeg
        {
            OFFSET -0.000000 -81.181816 0.000000
            CHANNELS 3 Zrotation Xrotation Yrotation
            JOINT LeftFoot
            {
                OFFSET -0.000000 -62.821102 0.000000
                CHANNELS 3 Zrotation Xrotation Yrotation
                JOINT LeftToeBase
                {
                    OFFSET -0.000000 -11.507608 26.556021
                    CHANNELS 3 Zrotation Xrotation Yrotation
                    End Site
                    {
                        OFFSET -0.000000 0.000000 7.081605
                    }
                }
            }
        }
    }
    JOINT RightUpLeg
    {
        OFFSET -17.704014 0.000000 0.000000
        CHANNELS 3 Zrotation Xrotation Yrotation
        JOINT RightLeg
        {
            OFFSET -0.000000 -81.181816 0.000000
            CHANNELS 3 Zrotation Xrotation Yrotation
            JOINT RightFoot
            {
                OFFSET -0.000000 -62.821102 0.000000
                CHANNELS 3 Zrotation Xrotation Yrotation
                JOINT RightToeBase
                {
                    OFFSET -0.000000 -11.507608 26.556021
                    CHANNELS 3 Zrotation Xrotation Yrotation
                    End Site
                    {
                        OFFSET -0.000000 0.000000 7.081605
                    }
                }
            }
        }
    }
}
MOTION
Frames:    12
Frame Time:    0.008333
43.626068    161.165176    -118.412270    -2.610591    -4.671112    27.377565    2.304512    -0.113302    -0.499541    -11.192583    0.711884    -0.096586    11.073445    8.442150    -2.819689    8.046727    -7.923272    -2.049684    10.573869    -3.045078    -13.337152    -21.939085    -28.004135    -33.082935    -16.683338    -31.803652    -99.441010    -32.299835    -38.338917    -39.739758    -14.704560    2.964082    -6.025607    17.639618    23.067036    7.502325    16.219683    17.731377    -0.968092    -0.393680    17.780920    24.600073    4.369658    -6.390773    -2.042751    -11.767414    25.502432    -16.364607    13.572535    -12.972939    44.928986    0.000000    0.000000    0.000000    -12.002045    -26.858179    -8.219511    10.968991    26.303093    -12.434555    7.403010    22.342089    -18.002897    0.000000    0.000000    0.000000    
43.640198    161.020294    -118.193184    -2.551244    -4.753864    27.412395    2.295645    -0.087037    -0.524253    -11.185607    0.784290    -0.097536    11.081379    8.456083    -2.824654    8.044578    -7.939474    -2.053365    10.575459    -3.025949    -13.325912    -21.968515    -28.037512    -33.123558    -16.591312    -31.761469    -99.546120    -32.007824    -38.444496    -39.294788    -14.729548    2.918490    -6.012815    17.566019    23.012383    7.465333    16.218103    17.743849    -1.011039    -0.349790    17.808247    24.621485    4.411741    -6.420979    -1.950852    -11.840008    25.946114    -16.325655    13.691689    -13.266482    44.919445    0.000000    0.000000    0.000000    -12.260411    -26.866419    -8.119344    10.911914    25.958588    -12.446205    7.534515    22.820948    -18.087484    0.000000    0.000000    0.000000    
43.654198    160.877151    -117.976257    -2.484829    -4.815649    27.452583    2.284094    -0.049934    -0.546627    -11.197824    0.826506    -0.100573    11.151271    8.435781    -2.821898    7.943711    -7.916207    -2.080511    10.587129    -3.049870    -13.344735    -22.013365    -28.172234    -33.101974    -16.664457    -31.533939    -99.594147    -31.907982    -38.365917    -39.235409    -14.785358    2.841094    -6.016693    17.528444    23.002987    7.403016    16.204268    17.798052    -1.024888    -0.393819    17.854866    24.672436    4.445110    -6.476008    -1.848900    -11.916723    26.412428    -16.319767    13.795243    -13.547882    44.915230    0.000000    0.000000    0.000000    -12.483379    -26.917664    -8.196470    10.646180    25.676580    -12.386248    7.649566    23.371605    -18.049347    0.000000    0.000000    0.000000    
43.653343    160.725204    -117.758301    -2.433932    -4.861805    27.480770    2.270852    -0.031098    -0.568786    -11.225734    0.852481    -0.105038    11.258191    8.464023    -2.780971    7.852736    -7.938687    -2.060492    10.612610    -3.039979    -13.396834    -21.959719    -28.096775    -33.020660    -16.598421    -31.637463    -99.682335    -31.930296    -38.414097    -39.238506    -14.791863    2.793778    -5.984652    17.476460    23.006039    7.313108    16.137161    17.784676    -0.982540    -0.315913    17.851517    24.638216    4.456036    -6.541197    -1.745338    -11.971365    26.952475    -16.279964    13.977132    -13.912920    44.966446    0.000000    0.000000    0.000000    -12.729111    -26.979300    -8.104372    10.561600    25.369696    -12.384818    8.064707    23.867666    -18.365276    0.000000    0.000000    0.000000    
43.642773    160.564011    -117.529175    -2.378032    -4.927155    27.533106    2.240451    0.024456    -0.598804    -11.215073    0.851087    -0.115043    11.291807    8.498581    -2.779369    7.829776    -7.949878    -2.061821    10.632070    -3.007815    -13.452788    -21.958889    -28.157604    -32.982777    -16.601215    -31.589405    -99.734520    -31.928020    -38.398968    -39.196037    -14.820996    2.763625    -5.984208    17.414204    22.986534    7.267590    16.091637    17.772316    -1.016360    -0.271642    17.852604    24.611601    4.505651    -6.639955    -1.632986    -12.037315    27.509100    -16.311304    14.096849    -14.213570    44.989437    0.000000    0.000000    0.000000    -12.986320    -27.019192    -8.013582    10.511512    25.073721    -12.395346    7.750600    24.383026    -18.156223    0.000000    0.000000    0.000000    
43.620117    160.398346    -117.297340    -2.352380    -4.980493    27.578733    2.213485    0.063816    -0.618419    -11.160248    0.845988    -0.122158    11.258335    8.524680    -2.798075    7.869573    -7.947221    -2.067917    10.623033    -2.995568    -13.486953    -21.966219    -28.201088    -32.972458    -16.613714    -31.516384    -99.774506    -31.883236    -38.380753    -39.149937    -14.889529    2.752593    -5.980600    17.360140    22.838160    7.215006    16.112366    17.793468    -1.078063    -0.250590    17.886650    24.607000    4.595119    -6.770495    -1.577291    -12.168168    28.067408    -16.304274    14.227609    -14.515069    45.058853    0.000000    0.000000    0.000000    -13.145434    -27.090471    -8.062684    10.196016    24.826805    -12.195162    7.991481    24.829649    -18.251902    0.000000    0.000000    0.000000    
43.598961    160.223846    -117.058769    -2.324102    -5.039535    27.649994    2.210036    0.112471    -0.668490    -11.148564    0.859955    -0.137111    11.285535    8.447515    -2.782524    7.827914    -7.851414    -2.076828    10.638593    -2.951041    -13.439402    -21.983736    -28.228947    -33.056156    -16.606306    -31.514328    -99.796638    -31.869385    -38.388588    -39.125256    -14.940379    2.701897    -5.999549    17.308445    22.778393    7.183545    16.102278    17.788759    -1.130774    -0.278310    17.883215    24.589628    4.689876    -6.894292    -1.566359    -12.323086    28.620743    -16.335747    14.414245    -14.793524    45.167122    0.000000    0.000000    0.000000    -13.375910    -27.142780    -8.005648    10.112870    24.591753    -12.176027    8.033324    25.216833    -18.279581    0.000000    0.000000    0.000000    
43.573162    160.046967    -116.808975    -2.296116    -5.112418    27.730455    2.225507    0.159072    -0.707551    -11.172873    0.869090    -0.148729    11.323062    8.502062    -2.791304    7.826524    -7.904270    -2.079838    10.642878    -2.971678    -13.525673    -21.883858    -28.124704    -32.972206    -16.521507    -31.655439    -99.829628    -31.920334    -38.423496    -39.146763    -14.971780    2.672286    -6.005686    17.269344    22.730574    7.139856    16.093891    17.766895    -1.201104    -0.305063    17.865299    24.553099    4.779184    -7.007607    -1.534717    -12.466418    29.308413    -16.407812    14.663242    -15.169911    45.335400    0.000000    0.000000    0.000000    -13.536222    -27.187353    -8.064592    9.836886    24.375172    -12.050035    8.199677    25.649729    -18.358932    0.000000    0.000000    0.000000    
43.550526    159.864151    -116.557899    -2.247288    -5.194299    27.815250    2.210418    0.249511    -0.750180    -11.168077    0.840902    -0.165070    11.374891    8.569089    -2.801219    7.793763    -7.946602    -2.091035    10.651801    -2.958084    -13.578207    -21.885870    -28.196568    -32.952267    -16.526628    -31.547485    -99.822510    -31.968882    -38.296936    -39.206848    -15.006765    2.622365    -6.030291    17.198347    22.719503    7.101554    16.086792    17.787451    -1.239910    -0.323259    17.887432    24.480095    4.858879    -7.106568    -1.480389    -12.437514    29.913836    -16.777264    14.728652    -15.512348    45.481800    0.000000    0.000000    0.000000    -13.794186    -27.201328    -7.873423    9.874539    24.127068    -12.124832    8.332950    26.012257    -18.593269    0.000000    0.000000    0.000000    
43.521534    159.677109    -116.286072    -2.193342    -5.291545    27.895529    2.207867    0.353724    -0.779529    -11.166050    0.812113    -0.177070    11.325231    8.562715    -2.810803    7.880864    -7.886289    -2.083745    10.634960    -2.899036    -13.635169    -21.843998    -28.268925    -32.966953    -16.569292    -31.513416    -99.825661    -31.954159    -38.308296    -39.223915    -15.063508    2.585810    -6.017127    17.147444    22.627249    7.013594    16.138750    17.862604    -1.304707    -0.362127    17.963865    24.458603    4.956473    -7.126227    -1.479494    -12.639540    30.497421    -16.743109    14.831348    -15.997809    45.625690    0.000000    0.000000    0.000000    -13.980582    -27.196867    -7.811797    9.724638    23.919462    -12.024173    8.442885    26.363827    -18.736156    0.000000    0.000000    0.000000    
43.505070    159.495972    -116.005562    -2.115895    -5.381205    28.000132    2.182621    0.423314    -0.825777    -11.194794    0.849497    -0.188149    11.336460    8.616897    -2.824463    7.937440    -7.925227    -2.078622    10.656455    -2.881001    -13.668706    -21.847702    -28.391918    -33.023262    -16.471491    -31.437399    -99.647583    -32.245502    -37.953022    -39.414604    -15.039936    2.596467    -6.029460    17.027632    22.511021    7.007149    16.205811    17.857603    -1.413942    -0.350397    17.976744    24.486364    5.023783    -7.134991    -1.452089    -12.755542    30.964188    -16.777464    15.024907    -16.279537    45.679913    0.000000    0.000000    0.000000    -14.219497    -27.171003    -7.639023    9.682965    23.688578    -12.121919    8.531657    26.662472    -18.846617    0.000000    0.000000    0.000000    
43.487022    159.319305    -115.708458    -2.020337    -5.500900    28.113161    2.159089    0.529036    -0.865462    -11.239724    0.888355    -0.196659    11.372981    8.659041    -2.852928    7.974193    -7.959445    -2.096426    10.701364    -2.958951    -13.797574    -21.792545    -28.329636    -32.881008    -16.579786    -31.429165    -99.838707    -31.988482    -38.231441    -39.234707    -15.043660    2.559064    -6.051267    16.985390    22.546198    6.938225    16.167427    17.856644    -1.408314    -0.246554    17.996105    24.431290    5.085116    -7.087304    -1.430153    -12.846115    31.396528    -16.816376    15.245168    -16.543127    45.727238    0.000000    0.000000    0.000000    -14.444757    -27.091032    -7.578391    9.592759    23.475147    -12.140531    8.574467    26.946325    -18.913197    0.000000    0.000000    0.000000    
